<svg width="20" height="20" viewBox="0 0 20 20" fill="none" xmlns="http://www.w3.org/2000/svg">
<mask id="mask0_1_2816" style="mask-type:alpha" maskUnits="userSpaceOnUse" x="0" y="0" width="20" height="20">
<rect width="20" height="20" fill="#D9D9D9"/>
</mask>
<g mask="url(#mask0_1_2816)">
<path d="M9.16663 14.1666H10.8333V9.16663H9.16663V14.1666ZM9.99996 7.49996C10.2361 7.49996 10.434 7.4201 10.5937 7.26038C10.7534 7.10065 10.8333 6.90274 10.8333 6.66663C10.8333 6.43051 10.7534 6.2326 10.5937 6.07288C10.434 5.91315 10.2361 5.83329 9.99996 5.83329C9.76385 5.83329 9.56593 5.91315 9.40621 6.07288C9.24649 6.2326 9.16663 6.43051 9.16663 6.66663C9.16663 6.90274 9.24649 7.10065 9.40621 7.26038C9.56593 7.4201 9.76385 7.49996 9.99996 7.49996ZM9.99996 18.3333C8.84718 18.3333 7.76385 18.1145 6.74996 17.677C5.73607 17.2395 4.85413 16.6458 4.10413 15.8958C3.35413 15.1458 2.76038 14.2638 2.32288 13.25C1.88538 12.2361 1.66663 11.1527 1.66663 9.99996C1.66663 8.84718 1.88538 7.76385 2.32288 6.74996C2.76038 5.73607 3.35413 4.85413 4.10413 4.10413C4.85413 3.35413 5.73607 2.76038 6.74996 2.32288C7.76385 1.88538 8.84718 1.66663 9.99996 1.66663C11.1527 1.66663 12.2361 1.88538 13.25 2.32288C14.2638 2.76038 15.1458 3.35413 15.8958 4.10413C16.6458 4.85413 17.2395 5.73607 17.677 6.74996C18.1145 7.76385 18.3333 8.84718 18.3333 9.99996C18.3333 11.1527 18.1145 12.2361 17.677 13.25C17.2395 14.2638 16.6458 15.1458 15.8958 15.8958C15.1458 16.6458 14.2638 17.2395 13.25 17.677C12.2361 18.1145 11.1527 18.3333 9.99996 18.3333ZM9.99996 16.6666C11.8611 16.6666 13.4375 16.0208 14.7291 14.7291C16.0208 13.4375 16.6666 11.8611 16.6666 9.99996C16.6666 8.13885 16.0208 6.56246 14.7291 5.27079C13.4375 3.97913 11.8611 3.33329 9.99996 3.33329C8.13885 3.33329 6.56246 3.97913 5.27079 5.27079C3.97913 6.56246 3.33329 8.13885 3.33329 9.99996C3.33329 11.8611 3.97913 13.4375 5.27079 14.7291C6.56246 16.0208 8.13885 16.6666 9.99996 16.6666Z" fill="#1B76A8"/>
</g>
</svg>
