<svg width="24" height="25" viewBox="0 0 24 25" fill="none" xmlns="http://www.w3.org/2000/svg">
<path d="M12 8.70898V16.709M8 12.709H16M7.8 21.709H16.2C17.8802 21.709 18.7202 21.709 19.362 21.382C19.9265 21.0944 20.3854 20.6354 20.673 20.071C21 19.4292 21 18.5891 21 16.909V8.50898C21 6.82883 21 5.98875 20.673 5.34701C20.3854 4.78253 19.9265 4.32358 19.362 4.03596C18.7202 3.70898 17.8802 3.70898 16.2 3.70898H7.8C6.11984 3.70898 5.27976 3.70898 4.63803 4.03596C4.07354 4.32358 3.6146 4.78253 3.32698 5.34701C3 5.98875 3 6.82883 3 8.50898V16.909C3 18.5891 3 19.4292 3.32698 20.071C3.6146 20.6354 4.07354 21.0944 4.63803 21.382C5.27976 21.709 6.11984 21.709 7.8 21.709Z" stroke="#939D2D" stroke-width="2" stroke-linecap="round" stroke-linejoin="round"/>
</svg>
